# xmcd
#
# Track frame offsets:
#	150
#	15502
#	32105
#	48092
#	65887
#	81830
#	95007
#	108132
#	126365
#	144472
#	163375
#	177160
#	196095
#	214560
#
# Disc length: 3124 seconds
#
# Revision: 0
# Processed by: cddbd v1.4PL0 Copyright (c) Steve Scherf et al.
# Submitted via: dBpowerAMP V4.0
#
DISCID=bf0c320e
DTITLE=Yö - 13. Yö
DYEAR=1999
DGENRE=Suomi Pop
TTITLE0=Vain yksi mies voi nostaa myrskyn
TTITLE1=Mun on turha odottaa
TTITLE2=Kulkuripoika
TTITLE3=Kuljettaa keväinen tie
TTITLE4=Älä mulle ala
TTITLE5=Kultakala
TTITLE6=Valvoin viime yönä
TTITLE7=Ympyrää
TTITLE8=Sydän riittää(riittääkö rakkaus)
TTITLE9=Uni
TTITLE10=En rakasta sua enää
TTITLE11=Että elämä armahtikin
TTITLE12=Löysin paljon oikeaa
TTITLE13=Pilvenpiirtäjät
EXTD=
EXTT0=
EXTT1=
EXTT2=
EXTT3=
EXTT4=
EXTT5=
EXTT6=
EXTT7=
EXTT8=
EXTT9=
EXTT10=
EXTT11=
EXTT12=
EXTT13=
PLAYORDER=
